<svg width="578.8800048828125px" height="125.63999023437499px" xmlns="http://www.w3.org/2000/svg" viewBox="-39.44000244140625 12.180004882812504 578.8800048828125 125.63999023437499" style="background: rgba(0, 0, 0, 0) none repeat scroll 0% 0%;" preserveAspectRatio="xMidYMid"><defs><filter id="editing-vr"><feFlood flood-color="#f00" flood-opacity="0.7" result="c1"></feFlood><feFlood flood-color="#00f" flood-opacity="0.7" result="c3"></feFlood><feComposite operator="in" in="c1" in2="SourceAlpha" result="text-c1"></feComposite><feComposite operator="in" in="c3" in2="SourceAlpha" result="text-c3"></feComposite><feOffset in="text-c1" dx="5" dy="-1" result="text1"></feOffset><feOffset in="text-c3" dx="-5" dy="1" result="text3"></feOffset><feBlend in="SourceGraphic" in2="text1" mode="multiply" result="text4"></feBlend><feBlend in="text4" in2="text3" mode="multiply"></feBlend></filter></defs><g filter="url(#editing-vr)"><g transform="translate(45.493831157684326, 105.26000022888184)"><path d="M2.73-40.30L2.73-40.30L2.73-40.30Q4.62-44.20 9.85-44.20L9.85-44.20L9.85-44.20Q15.08-44.20 17.52-41.18L17.52-41.18L17.52-41.18Q19.96-38.16 19.96-31.20L19.96-31.20L19.96-8.00L35.75-42.84L43.48-42.84L23.27 0L8.06 0L6.11-31.20L6.11-31.20Q5.92-34.65 4.97-36.98L4.97-36.98L4.97-36.98Q4.03-39.33 2.73-40.30ZM40.76-1.63L40.37-9.62L48.49-15.86L53.56-20.02L53.56-20.02Q56.16-22.23 58.05-24.18L58.05-24.18L58.05-24.18Q61.49-27.63 61.49-30.94L61.49-30.94L61.49-30.94Q61.49-32.89 60.22-33.93L60.22-33.93L60.22-33.93Q58.95-34.97 57.10-34.97L57.10-34.97L57.10-34.97Q55.25-34.97 53.92-34.55L53.92-34.55L53.92-34.55Q52.59-34.13 51.41-33.41L51.41-33.41L51.41-33.41Q48.95-31.79 47.77-29.32L47.77-29.32L47.77-29.32Q46.15-29.38 45.08-30.75L45.08-30.75L45.08-30.75Q44.01-32.11 44.01-34.09L44.01-34.09L44.01-34.09Q44.01-36.08 45.24-37.93L45.24-37.93L45.24-37.93Q46.48-39.78 48.69-41.21L48.69-41.21L48.69-41.21Q53.50-44.20 60.09-44.20L60.09-44.20L60.09-44.20Q66.69-44.20 70.40-41.34L70.40-41.34L70.40-41.34Q74.10-38.48 74.10-33.61L74.10-33.61L74.10-33.61Q74.10-29.96 72.31-26.65L72.31-26.65L72.31-26.65Q70.53-23.34 65.78-19.96L65.78-19.96L58.76-15.02L54.54-12.22L49.14-8.91L51.41-8.64L51.41-8.64Q52.98-8.45 55.70-8.45L55.70-8.45L55.70-8.45Q58.44-8.45 60.71-8.74L60.71-8.74L60.71-8.74Q62.98-9.04 64.94-9.62L64.94-9.62L64.94-9.62Q69.22-10.79 70.59-12.42L70.59-12.42L70.59-12.42Q71.31-11.89 71.86-10.56L71.86-10.56L71.86-10.56Q72.41-9.23 72.41-7.61L72.41-7.61L72.41-7.61Q72.41-2.73 68.70-0.72L68.70-0.72L68.70-0.72Q65 1.30 57.40 1.30L57.40 1.30L57.40 1.30Q53.43 1.30 48.16 0.16L48.16 0.16L48.16 0.16Q42.90-0.98 40.76-1.63L40.76-1.63ZM97.70-18.27L97.70-18.27L97.70-18.27Q100.03-22.43 100.03-26.65L100.03-26.65L100.03-26.65Q100.03-29.45 98.02-29.45L98.02-29.45L98.02-29.45Q96.46-29.45 94.84-26.78L94.84-26.78L94.84-26.78Q93.15-24.12 92.63-20.67L92.63-20.67L89.25 0L75.79 1.30L82.42-33.15L93.15-34.45L91.98-27.89L91.98-27.89Q95.16-34.45 102.31-34.45L102.31-34.45L102.31-34.45Q106.08-34.45 108.13-32.50L108.13-32.50L108.13-32.50Q110.18-30.55 110.18-26.55L110.18-26.55L110.18-26.55Q110.18-22.55 107.54-20.02L107.54-20.02L107.54-20.02Q104.91-17.48 100.43-17.48L100.43-17.48L100.43-17.48Q98.48-17.48 97.70-18.27ZM114.04-1.95L114.04-1.95L114.04-1.95Q112.52-3.64 111.83-6.31L111.83-6.31L111.83-6.31Q111.15-8.97 111.15-13.33L111.15-13.33L111.15-13.33Q111.15-17.68 112.65-21.64L112.65-21.64L112.65-21.64Q114.14-25.61 116.87-28.47L116.87-28.47L116.87-28.47Q122.46-34.45 131.69-34.45L131.69-34.45L131.69-34.45Q135.01-34.45 137.41-33.34L137.41-33.34L148.53-34.45L143.72-9.10L143.72-9.10Q143.52-8.32 143.52-6.89L143.52-6.89L143.52-6.89Q143.52-5.46 144.40-4.55L144.40-4.55L144.40-4.55Q145.28-3.64 146.58-3.51L146.58-3.51L146.58-3.51Q145.93-1.30 143.55 0L143.55 0L143.55 0Q141.18 1.30 138.52 1.30L138.52 1.30L138.52 1.30Q135.85 1.30 134.06 0.29L134.06 0.29L134.06 0.29Q132.28-0.72 131.76-2.41L131.76-2.41L131.76-2.41Q130.72-0.78 128.51 0.26L128.51 0.26L128.51 0.26Q126.30 1.30 123.34 1.30L123.34 1.30L123.34 1.30Q120.38 1.30 117.98 0.52L117.98 0.52L117.98 0.52Q115.57-0.26 114.04-1.95ZM127.76-28.34L127.76-28.34L127.76-28.34Q127.01-27.17 126.36-25.19L126.36-25.19L126.36-25.19Q125.71-23.21 124.64-17.91L124.64-17.91L124.64-17.91Q123.57-12.61 123.57-8.84L123.57-8.84L123.57-8.84Q123.57-5.07 124.15-3.97L124.15-3.97L124.15-3.97Q124.74-2.86 125.78-2.86L125.78-2.86L125.78-2.86Q127.86-2.86 129.38-4.84L129.38-4.84L129.38-4.84Q130.91-6.83 131.50-10.34L131.50-10.34L134.94-29.38L134.94-29.38Q133.58-30.55 131.98-30.55L131.98-30.55L131.98-30.55Q130.39-30.55 129.45-30.03L129.45-30.03L129.45-30.03Q128.51-29.51 127.76-28.34ZM172.71-7.35L172.71-7.35L172.71-7.35Q169.33-3.83 163.15-3.83L163.15-3.83L163.15-3.83Q155.42-3.83 153.79-9.49L153.79-9.49L153.79-9.49Q153.27-11.18 153.27-13.07L153.27-13.07L153.27-13.07Q153.27-14.95 153.66-16.90L153.66-16.90L156.72-33.15L169.91-34.45L166.34-15.54L166.34-15.54Q166.21-14.69 166.01-13.78L166.01-13.78L166.01-13.78Q165.81-12.87 165.81-11.93L165.81-11.93L165.81-11.93Q165.81-10.99 166.14-10.37L166.14-10.37L166.14-10.37Q166.47-9.75 166.92-9.36L166.92-9.36L166.92-9.36Q167.70-8.84 169.10-8.84L169.10-8.84L169.10-8.84Q170.50-8.84 171.70-10.53L171.70-10.53L171.70-10.53Q172.90-12.22 173.49-15.15L173.49-15.15L177.06-33.15L189.87-34.45L184.99-8.91L184.99-8.91Q182.59 3.58 177.65 8.52L177.65 8.52L177.65 8.52Q175.11 11.05 171.83 12.06L171.83 12.06L171.83 12.06Q168.55 13.07 164.32 13.07L164.32 13.07L164.32 13.07Q157.50 13.07 153.59 10.92L153.59 10.92L153.59 10.92Q149.69 8.78 149.69 5.20L149.69 5.20L149.69 5.20Q149.69 2.54 151.71 1.01L151.71 1.01L151.71 1.01Q153.72-0.52 156.84-0.52L156.84-0.52L156.84-0.52Q159.58-0.52 161.66 0.65L161.66 0.65L161.66 0.65Q162.89 1.36 163.47 2.27L163.47 2.27L163.47 2.27Q161.98 3.58 161.98 5.72L161.98 5.72L161.98 5.72Q161.98 8.58 164.58 8.58L164.58 8.58L164.58 8.58Q168.87 8.58 171.34-1.30L171.34-1.30L171.34-1.30Q172.06-4.23 172.71-7.35ZM194.61-10.53L194.61-10.53L194.61-10.53Q192.53-12.03 192.53-14.88L192.53-14.88L192.53-14.88Q192.53-16.45 193.31-17.71L193.31-17.71L193.31-17.71Q194.09-18.98 195.65-19.18L195.65-19.18L208.46-19.18L208.46-19.18Q210.60-19.18 211.25-20.48L211.25-20.48L211.25-20.48Q212.29-19.89 212.75-18.66L212.75-18.66L212.75-18.66Q213.20-17.42 213.20-16.12L213.20-16.12L213.20-16.12Q213.20-14.82 212.19-13.55L212.19-13.55L212.19-13.55Q211.19-12.29 209.69-12.16L209.69-12.16L197.80-12.16L197.80-12.16Q196.43-12.16 195.78-11.73L195.78-11.73L195.78-11.73Q195.13-11.31 194.61-10.53ZM243.04-30.03L243.04-30.03L243.04-30.03Q244.01-31.98 244.01-33.80L244.01-33.80L244.01-33.80Q244.01-35.62 243.81-36.63L243.81-36.63L243.81-36.63Q243.62-37.63 243.17-38.41L243.17-38.41L243.17-38.41Q242.19-40.11 240.24-40.11L240.24-40.11L240.24-40.11Q237.84-40.11 235.89-38.35L235.89-38.35L235.89-38.35Q233.81-36.53 233.81-33.67L233.81-33.67L233.81-33.67Q233.81-31.85 235.07-30.45L235.07-30.45L235.07-30.45Q236.34-29.05 238.29-27.76L238.29-27.76L238.29-27.76Q240.24-26.46 242.45-25.16L242.45-25.16L242.45-25.16Q244.66-23.86 246.61-22.30L246.61-22.30L246.61-22.30Q251.10-18.72 251.10-13.91L251.10-13.91L251.10-13.91Q251.10-10.66 249.37-7.90L249.37-7.90L249.37-7.90Q247.65-5.13 244.79-3.12L244.79-3.12L244.79-3.12Q238.55 1.30 230.30 1.30L230.30 1.30L230.30 1.30Q223.60 1.30 220.16-0.88L220.16-0.88L220.16-0.88Q216.71-3.06 216.71-6.37L216.71-6.37L216.71-6.37Q216.71-12.29 221.33-13.78L221.33-13.78L221.33-13.78Q222.63-14.24 224.61-14.24L224.61-14.24L224.61-14.24Q226.59-14.24 228.87-13.39L228.87-13.39L228.87-13.39Q227.83-10.72 227.83-8.32L227.83-8.32L227.83-8.32Q227.83-3.12 231.53-3.12L231.53-3.12L231.53-3.12Q233.94-3.12 235.92-4.88L235.92-4.88L235.92-4.88Q237.90-6.63 237.90-8.61L237.90-8.61L237.90-8.61Q237.90-10.60 236.63-12.03L236.63-12.03L236.63-12.03Q235.37-13.46 233.48-14.59L233.48-14.59L233.48-14.59Q231.60-15.73 229.42-16.84L229.42-16.84L229.42-16.84Q227.24-17.94 225.36-19.50L225.36-19.50L225.36-19.50Q220.94-23.07 220.94-28.80L220.94-28.80L220.94-28.80Q220.94-32.50 222.76-35.39L222.76-35.39L222.76-35.39Q224.58-38.29 227.50-40.23L227.50-40.23L227.50-40.23Q233.35-44.20 240.53-44.20L240.53-44.20L240.53-44.20Q247.72-44.20 251.19-42.05L251.19-42.05L251.19-42.05Q254.67-39.91 254.67-36.27L254.67-36.27L254.67-36.27Q254.67-33.09 252.20-31.07L252.20-31.07L252.20-31.07Q250.06-29.38 247.46-29.38L247.46-29.38L247.46-29.38Q244.86-29.38 243.04-30.03ZM287.95-27.04L287.95-27.04L287.95-27.04Q287.95-24.31 285.68-22.62L285.68-22.62L285.68-22.62Q283.40-20.93 279.69-20.93L279.69-20.93L279.69-20.93Q278.13-20.93 277.23-21.39L277.23-21.39L277.23-21.39Q277.94-23.07 278.17-25.19L278.17-25.19L278.17-25.19Q278.39-27.30 278.39-27.89L278.39-27.89L278.39-27.89Q278.39-30.62 276.51-30.62L276.51-30.62L276.51-30.62Q275.21-30.62 273.75-28.99L273.75-28.99L273.75-28.99Q272.29-27.37 271.05-24.83L271.05-24.83L271.05-24.83Q268.32-18.98 268.32-13.07L268.32-13.07L268.32-13.07Q268.32-9.81 269.56-8.35L269.56-8.35L269.56-8.35Q270.79-6.89 273.52-6.89L273.52-6.89L273.52-6.89Q277.29-6.89 280.28-10.01L280.28-10.01L280.28-10.01Q281.13-10.99 281.58-12.09L281.58-12.09L281.58-12.09Q284.05-10.79 284.05-7.21L284.05-7.21L284.05-7.21Q284.05-3.58 280.02-1.17L280.02-1.17L280.02-1.17Q275.86 1.30 269.23 1.30L269.23 1.30L269.23 1.30Q256.04 1.30 256.04-12.68L256.04-12.68L256.04-12.68Q256.04-22.88 261.82-28.73L261.82-28.73L261.82-28.73Q267.41-34.45 277.68-34.45L277.68-34.45L277.68-34.45Q287.95-34.45 287.95-27.04ZM310.05-18.27L310.05-18.27L310.05-18.27Q312.39-22.43 312.39-26.65L312.39-26.65L312.39-26.65Q312.39-29.45 310.38-29.45L310.38-29.45L310.38-29.45Q308.81-29.45 307.19-26.78L307.19-26.78L307.19-26.78Q305.50-24.12 304.98-20.67L304.98-20.67L301.60 0L288.15 1.30L294.78-33.15L305.50-34.45L304.33-27.89L304.33-27.89Q307.52-34.45 314.67-34.45L314.67-34.45L314.67-34.45Q318.44-34.45 320.48-32.50L320.48-32.50L320.48-32.50Q322.53-30.55 322.53-26.55L322.53-26.55L322.53-26.55Q322.53-22.55 319.90-20.02L319.90-20.02L319.90-20.02Q317.27-17.48 312.78-17.48L312.78-17.48L312.78-17.48Q310.83-17.48 310.05-18.27ZM339.17-3.58L339.17-3.58L339.17-3.58Q337.16 1.30 330.72 1.30L330.72 1.30L330.72 1.30Q327.41 1.30 325.33-0.98L325.33-0.98L325.33-0.98Q323.57-2.99 323.57-5.00L323.57-5.00L323.57-5.00Q323.57-10.27 325.98-20.54L325.98-20.54L328.38-33.15L341.58-34.45L337.61-13.91L337.61-13.91Q336.51-9.10 336.51-7.41L336.51-7.41L336.51-7.41Q336.51-3.71 339.17-3.58ZM329.55-42.19L329.55-42.19L329.55-42.19Q329.55-44.72 331.66-46.09L331.66-46.09L331.66-46.09Q333.78-47.45 336.83-47.45L336.83-47.45L336.83-47.45Q339.89-47.45 341.74-46.09L341.74-46.09L341.74-46.09Q343.59-44.72 343.59-42.19L343.59-42.19L343.59-42.19Q343.59-39.65 341.54-38.35L341.54-38.35L341.54-38.35Q339.50-37.05 336.44-37.05L336.44-37.05L336.44-37.05Q333.39-37.05 331.47-38.35L331.47-38.35L331.47-38.35Q329.55-39.65 329.55-42.19ZM374.99-4.45L374.99-4.45L374.99-4.45Q372.26-1.69 368.52-0.20L368.52-0.20L368.52-0.20Q364.78 1.30 361.08 1.30L361.08 1.30L361.08 1.30Q357.37 1.30 356.07 0.65L356.07 0.65L354.06 11.70L340.86 13L349.83-33.15L360.43-34.26L359.58-29.77L359.58-29.77Q362.31-34.38 367.97-34.38L367.97-34.38L367.97-34.38Q374.34-34.38 377.72-30.29L377.72-30.29L377.72-30.29Q380.71-26.59 380.71-20.93L380.71-20.93L380.71-20.93Q380.71-15.28 379.21-11.25L379.21-11.25L379.21-11.25Q377.72-7.21 374.99-4.45ZM360.30-22.69L356.85-3.64L356.85-3.64Q358.22-2.47 359.91-2.47L359.91-2.47L359.91-2.47Q361.60-2.47 362.57-3.12L362.57-3.12L362.57-3.12Q363.55-3.77 364.26-5.07L364.26-5.07L364.26-5.07Q366.21-8.58 367.77-19.24L367.77-19.24L367.77-19.24Q368.23-22.36 368.23-25.41L368.23-25.41L368.23-25.41Q368.23-28.47 367.54-29.45L367.54-29.45L367.54-29.45Q366.86-30.42 365.56-30.42L365.56-30.42L365.56-30.42Q361.60-30.42 360.30-22.69L360.30-22.69ZM385.65-6.50L385.65-6.50L385.65-6.50Q385.65-8.26 386.56-12.68L386.56-12.68L390.00-30.23L386.17-30.23L386.43-32.18L386.43-32.18Q394.23-34.52 401.77-40.23L401.77-40.23L404.89-40.23L403.33-33.15L408.40-33.15L407.81-30.23L402.81-30.23L399.49-12.68L399.49-12.68Q398.65-8.64 398.65-7.28L398.65-7.28L398.65-7.28Q398.65-4.16 401.38-3.51L401.38-3.51L401.38-3.51Q400.73-1.30 398.39 0L398.39 0L398.39 0Q396.05 1.30 392.73 1.30L392.73 1.30L392.73 1.30Q389.42 1.30 387.53-0.78L387.53-0.78L387.53-0.78Q385.65-2.86 385.65-6.50Z" fill="#444"></path></g></g><style>text {
  font-size: 64px;
  font-family: Arial Black;
  dominant-baseline: central;
  text-anchor: middle;
}</style></svg>